<svg xmlns="http://www.w3.org/2000/svg" viewBox="0 0 205.35 22.48"><defs><style>.cls-1{fill:#4d4d4d;}</style></defs><g id="レイヤー_2" data-name="レイヤー 2"><g id="レイヤー_1-2" data-name="レイヤー 1"><path class="cls-1" d="M8.28,3.28A.33.33,0,0,0,8.56,3h5.82a.87.87,0,0,1,.67.3.92.92,0,0,1,.32.61.07.07,0,0,0,0,.05A6.66,6.66,0,0,0,15,5.81a1,1,0,0,0-.07.38.29.29,0,0,0-.34.25c0,.4-.11,1.39-.11,2.25l0,0a1.35,1.35,0,0,0-1-.08V6.46C13,6,12.47,5.84,12.18,5.24a.74.74,0,0,1,0-.25H10.68a14.33,14.33,0,0,0-1.52.75l-.05,0a.73.73,0,0,1-.26.16l-.18.14v.64a.36.36,0,0,0-.2.27c0,.4,0,.78,0,1.19a.28.28,0,0,0-.18,0h0c-.23.18-.2.4,0,.5s.16.47.22.72c0,.63,0,1.26,0,1.89,0,.24-.32,1.68.29,2v1a.34.34,0,0,1,.14.08.58.58,0,0,1,.13.46l.08,0A.67.67,0,0,1,8.67,16v2.24a6.35,6.35,0,0,0,1.38.35.67.67,0,0,1,.5.55h1.54a.88.88,0,0,1,1,1,.87.87,0,0,1-1,1H10.91s-.09-.07-.18-.1a15,15,0,0,0-3.21-.09c-.12.05-.18.09-.2.16-1.37,0-2.68-.15-4-.16A.35.35,0,0,0,3,21a.83.83,0,0,1-.7-1,.89.89,0,0,1,1-1H5.22a1.73,1.73,0,0,1,.73-1A2.43,2.43,0,0,1,6.47,18c.07.4.56.39.6-.06,0-3.14-.28-6.24-.38-9.4V5.79L6.56,5.7H6.39a.7.7,0,0,1-.52-.36A1.29,1.29,0,0,1,5.46,5H4c-.1.12-.21.23-.32.35C2.43,5.5,2.11,6,2,6.87v0S2,7,2,7A.29.29,0,0,0,1.71,7a3.45,3.45,0,0,0-.33,1.09A1.72,1.72,0,0,0,1.1,9.2C1,9.37,1,9.49.94,9.65s0,0-.09,0-.2-.06-.49,0l0-.13A10.27,10.27,0,0,0,0,6.86v0H0a.06.06,0,0,0,0,0c0-1,0-2.07,0-3.1.07.41.55.39.61,0V3.07A.69.69,0,0,1,1,3H3.72a.59.59,0,0,1,.33-.44c0,.1.06.16.13.25C4.78,3.41,7.44,3.28,8.28,3.28ZM.58,10.35h0a.33.33,0,0,0,.06.1v.05A1,1,0,0,0,.58,10.35ZM9.89,17c.2.41.64.47.71.72a.23.23,0,0,0,.1.14.5.5,0,0,1-.77.08A.56.56,0,0,1,9.89,17Zm.89.07a1.06,1.06,0,0,1-.23-.16l.18.09C10.73,17.05,10.75,17.06,10.78,17.07Zm2.61-7.64V9.34a3.38,3.38,0,0,0,.7-.1.49.49,0,0,1,.15.17c0,.11-.05.2-.06.33a.87.87,0,0,0-.52-.16A.39.39,0,0,0,13.39,9.43Zm1.69,1h0Z"/><path class="cls-1" d="M32.7,19.56a8.18,8.18,0,0,0,1.23.06h.57c.35-.05.83-.13,1-.49a.91.91,0,0,0,0-.25,3.22,3.22,0,0,1,1.54-.71h.13v0a.57.57,0,0,1,.4-.52v-2a.88.88,0,0,1,1-1,.87.87,0,0,1,1,1v4.47a1,1,0,0,1-1,1H28.54s0,0,0,0c-.15-.83-1.11-.1-1.55,0l-.09,0H25.13a.87.87,0,0,1-1-1,.88.88,0,0,1,1-1h1.13a2.48,2.48,0,0,1,1-1.05V16.61c.17.11.4,0,.44-.31,0-2.13,0-4.23-.08-6.39a6.85,6.85,0,0,0-.36-2.2V5.78a.59.59,0,0,1-.64-.54v0s0,0-.09-.16H25.24a.89.89,0,0,1-1-1,.89.89,0,0,1,1-1h2.68a.41.41,0,0,0,.24.14h0a10.93,10.93,0,0,0,2.49-.2c.3-.06.55-.24.87-.29h.05a.87.87,0,0,1,.26.35h2.82a.65.65,0,0,1,1.08-.49.83.83,0,0,1,.12.49h2.74a1,1,0,0,1,1,1V8.27a.87.87,0,0,1-1,1,.88.88,0,0,1-1-1V6.48l-.07-.12A1.28,1.28,0,0,0,37,5.68a.38.38,0,0,1-.22-.06.74.74,0,0,1-.42-.15.69.69,0,0,1-.25-.34H34.85l-.18-.06a1.52,1.52,0,0,0-.74-.47,2.62,2.62,0,0,0-.74,0c-1-.23-1.86-.3-2.24.09a.31.31,0,0,0,0,.33c0,.06,0,.09,0,.11H30a.6.6,0,0,1-.16.16c-.05.12-.11.28-.17.4a5.82,5.82,0,0,0-.24,1.23,13,13,0,0,0,.07,2.64,1.41,1.41,0,0,1,.67.67s0,.07,0,.12h1.51a3.18,3.18,0,0,1,1.74-1.77A1,1,0,0,1,35.41,9v4.53a1,1,0,0,1-2,0v-.46a.62.62,0,0,1-.62-.41c-.07-.13-.15-.25-.22-.36H29.77a.41.41,0,0,1,0,.12.63.63,0,0,1-.4.62c0,.11,0,.19,0,.3a.63.63,0,0,1-.15.25V15a.89.89,0,0,1,.38,0,4,4,0,0,0,.17,2.67,1,1,0,0,1-.17.4c.3.35.75.75,1,1.05H31c0,.17.07.32.31.37C31.75,19.47,32.23,19.51,32.7,19.56Zm-3.5-3h0s0,0,0-.07Zm.82-.47a.23.23,0,0,0,.25,0,.68.68,0,0,1-.21.45A3.58,3.58,0,0,1,30,16.08Zm.09-.59-.05,0a.25.25,0,0,1,0-.12Zm3.37,1.76.05.09a.21.21,0,0,0,.11.07.34.34,0,0,0,.12,0h.07a1.31,1.31,0,0,0,.36.7.52.52,0,0,1-.55-.11A.51.51,0,0,1,33.48,17.25Z"/><path class="cls-1" d="M52.17,17a1.76,1.76,0,0,0-.31.74c0,.22.2.35.37.3a.51.51,0,0,0,.3.4.32.32,0,0,0,.42-.11s0-.09.08-.14a.71.71,0,0,1,.23.58,1,1,0,0,1,0,.16l-.05.16h1.32a.88.88,0,0,1,1,1,.86.86,0,0,1-1,1H52.93c0-.07-.12-.14-.23-.19-.74,0-1.48,0-2.21.07a3,3,0,0,1-1.09-.35A.31.31,0,0,0,49,21h-.18a.84.84,0,0,1-.67-1,.88.88,0,0,1,1-1h.95l3-8.2a6.55,6.55,0,0,0,1.1-2.53.47.47,0,0,0-.08-.26l.83-2.24a2.11,2.11,0,0,0-1.44-.27.61.61,0,0,1-.63-.6h-.61a.87.87,0,0,1-1-1,1,1,0,0,1,.24-.74.39.39,0,0,0,.25.14h.07a.78.78,0,0,0,.56.44c.6.16,1.2-.31,1.78-.35a.22.22,0,0,0,.17-.09c.79,0,1.58,0,2.36.06a10.31,10.31,0,0,0,2.22.12H59a.24.24,0,0,0,.06.08L63,13.49a.6.6,0,0,1,.67-.64,1.67,1.67,0,0,0-.08,1.21.48.48,0,0,1-.31-.14c-.07-.05-.12-.07-.14-.11l2.11,5.28H66a.89.89,0,0,1,1,1,.88.88,0,0,1-1,1H63.91c0-.16-.11-.31-.36-.3-.73.08-2,.3-2.09.3h-.75a.86.86,0,0,1-1-1,.88.88,0,0,1,1-1h0L60.67,19a.6.6,0,0,1-.27-.46c.43,0,.84,0,1-.51,0,0,0,0,.06.05a.75.75,0,0,1-.11,1h1a.73.73,0,0,1,.14-.42,2.28,2.28,0,0,1,.33-.36l-1-2.6a.34.34,0,0,1-.2,0,1.08,1.08,0,0,1-.32-.09.75.75,0,0,1-.34-.34H53.58l-.18.48,0,0s0,0-.06-.05l-.05,0a.33.33,0,0,0-.26,0l-.08.09v0c0,.05,0,.07,0,.1a1.62,1.62,0,0,1-.36.63.3.3,0,0,0-.33.28Zm5-10.58a.35.35,0,0,0-.08.15v.06c0,.08,0,.14-.05.2a1.09,1.09,0,0,1,0-.2.15.15,0,0,0-.3-.06.36.36,0,0,0-.3.15h0v0a13.43,13.43,0,0,0-1.28,3.12,2.34,2.34,0,0,0-.25.56c-.07.18-.77,1.38-.6,1.89.36,1.22,3.22.8,4.07.73h.28c.48,0,.92,0,1.12-.24a1.91,1.91,0,0,0,.52.33.3.3,0,0,0,.28-.5,3.46,3.46,0,0,1-.65-.78c-.12-.24-.38-1.31-.45-1.54,0,0,0,0,0,0-.21-1.22-.83-2.3-1-3.53a.31.31,0,0,0-.6,0A2.86,2.86,0,0,0,57,6c-.23-.06-.32.17-.12.28Zm-1.49,4.91c0,.05-.06.05-.11.09s0-.08.07-.12ZM56,9.55a.53.53,0,0,1,0,.12,1.13,1.13,0,0,0-.17.24A2.24,2.24,0,0,1,56,9.55ZM57,11.4s0,0,0,0,0,.05,0,.07l-.11-.06V11.4l0,0Zm3.59,1.88v0h.2Z"/><path class="cls-1" d="M75.79,9.21a.3.3,0,0,0,.13-.56l.31,0h.56a.33.33,0,0,0,.26-.41h1.31v-.3c.17,0,.32-.11.33-.34a12,12,0,0,0-.1-1.22.3.3,0,0,0-.23-.25V4.61a.87.87,0,0,1,1-1,.27.27,0,0,0,.31,0,.83.83,0,0,1,.38.17c0,.06,0,.1,0,.11S80,4,80,4a.06.06,0,0,0,0,0v.11a5.44,5.44,0,0,0,0,1.75.3.3,0,0,0-.24.27c0,.35-.1.8.34.91a.4.4,0,0,0,.21,0v1.1a.3.3,0,0,0,.1.39.63.63,0,0,0,.35.22.52.52,0,0,0,.27-.07.23.23,0,0,0,.08-.11l.3.27a.34.34,0,0,0,.5-.22c-.1-.16,0-.39.31-.43h2.42a.29.29,0,0,1,.23.41h.45a.31.31,0,0,0,.24-.41h1.54a.89.89,0,0,1,1,1,.88.88,0,0,1-1,1h-.4a.76.76,0,0,1-.15-.09c-.18,0-.1,0-.23,0a3.28,3.28,0,0,0-.78-.17.34.34,0,0,0-.35.29h-.36a.31.31,0,0,0-.19-.49h-2c-.29.06-.4.26-.32.43l-1.09,0a.5.5,0,0,0-.25.09h-.33c-.11.19-.22.39-.33.55V12c-.15,0-.43.3-.52.82a6.86,6.86,0,0,0,.27,2.09.35.35,0,0,0,.25.31v.62a2.47,2.47,0,0,1,0-.36.31.31,0,0,0-.61,0c0,.73.19,1.08.2,1.51a.55.55,0,0,0,.11.23v1.08c0,.28.29.38.45.27a4.79,4.79,0,0,0,.22.67c-.23-.07-.44.17-.31.46a1.89,1.89,0,0,0,.85.47.54.54,0,0,1,.05.11c.28.65,1.3.87,2.16.76h0c0,.11.11.17.28.19l.3-.05a3.34,3.34,0,0,0,1.91-.37c.24.55,2-.31,2.29-.55a.32.32,0,0,0,0-.46,1.56,1.56,0,0,1,1.27-.57.32.32,0,0,0,.27-.37.79.79,0,0,1,.17.14,1.07,1.07,0,0,1,.29.73,1,1,0,0,1-.46.79l-1.86.95a11.26,11.26,0,0,1-4.41,1,6.64,6.64,0,0,1-2.44-.4c.36-.08.33-.48,0-.6h-.69a.35.35,0,0,0-.25.09,4.58,4.58,0,0,1-1.71-3.51.3.3,0,0,0,.26-.43.4.4,0,0,1-.08-.18c0-.05,0-.1,0-.14,0-1,.4-3-.23-4v-2a.4.4,0,0,0-.13-.38c-.3-.09-.32-.47-.6-.59a2.74,2.74,0,0,1,0-.43h-.32a.3.3,0,0,0-.57.18.23.23,0,0,0,0,.09H75.21a.88.88,0,0,1-1-1V9.08l0,0a.94.94,0,0,1,.46-.22h0c0,.14.11.26.32.3h.16a.44.44,0,0,0,.24.1Zm2.47,1a.45.45,0,0,0,0,.19l.06.2V10.2Z"/><path class="cls-1" d="M109,19.09h1.17c0,.17.06.32.3.37.51,0,1,.09,1.55.1a1.18,1.18,0,0,1,.1.52.87.87,0,0,1-1,1h-2.26c.16-.16.09-.39-.17-.49h-.4c-.25,0-.39.18-.34.35a3.52,3.52,0,0,0-2,0l-.17.1h-2a8.69,8.69,0,0,0-2.15-.19.36.36,0,0,0-.33.19h-.64a.88.88,0,0,1-1-1,2.14,2.14,0,0,1,.06-.46.27.27,0,0,0,.16.05,1.6,1.6,0,0,0,1.19-.49s0,0,.06-.09h2a.28.28,0,0,1,0-.08c-.07-.16-.09-.22,0-.38a.72.72,0,0,1,.66-.27,1,1,0,0,0,.09-.26c0-1.65.13-3.31.24-5-.11,0-.19-.09-.23-.24,0-.32-.07-.28-.15-.4-.14-.36.16-.58.43-.4V12c-.11-.32-.21-.62-.32-1l-.1,0V9.71a.28.28,0,0,1-.26-.22,1,1,0,0,0-.3-.29.29.29,0,0,1-.5-.22h-1.44a.88.88,0,0,1-1-1,.88.88,0,0,1,1-1,.28.28,0,0,0,.18.38c1.37.49,1.13,0,2.36-.08.18,0,.27-.13.27-.3h.68a1,1,0,0,1,1,1v.14c.11,0,.23,0,.35.14a2,2,0,0,1,.2.68,2.85,2.85,0,0,1,.57-.31A1,1,0,0,0,107,8.5a.29.29,0,0,1,.48.1,8.13,8.13,0,0,1,4.73-1.51,3.9,3.9,0,0,1,2.22.62c0,.09,0,.17.12.21a.27.27,0,0,0-.15.44.3.3,0,0,0,.54-.23l0,0a1,1,0,0,1,.29.69,1,1,0,0,1-1,1,1,1,0,0,1-.7-.32,1.89,1.89,0,0,0-1-.45.33.33,0,0,0-.23-.41,5.29,5.29,0,0,0-1.35.13c-1.06,0-2,0-2.7.7-1.21.32-1.76,1.43-2,2.71-.24.12-.28.34-.14.49-.14.17-.29.36-.43.56v1.21c-.06,0-.07,0-.08,0a2.54,2.54,0,0,0-.28.48c0,.6,0,1.17,0,1.75.11.29.2.57.32.87v.68a3.07,3.07,0,0,1,.85.78h.9a1.69,1.69,0,0,0,1.33.47A.32.32,0,0,0,109,19.09Zm-3.31-8.95v.07s0,0,0-.05S105.68,10.16,105.67,10.14Zm.52-.46.09-.07a.19.19,0,0,1-.08,0A.31.31,0,0,0,106.19,9.68Zm.77,2.06a3.18,3.18,0,0,1,.41-.89c-.06.21-.12.4-.17.62Zm1.56-1.63,0,0S108.52,10.11,108.52,10.11Z"/><path class="cls-1" d="M131.49,18.45V17.16c.08-1.34.19-2.64.24-4,0-.5.13-1.07-.24-1.28V10.52a.27.27,0,0,1-.22-.06s-.05,0-.07-.07-.32,0-.37-.28A6.11,6.11,0,0,0,130.78,9h-.38a.39.39,0,0,0-.23-.18c-.41,0-.77.15-1.14.18h-1a.87.87,0,0,1-1-1,.86.86,0,0,1,.52-.91c0,.16.08.27.32.31.5,0,2.16.24,2.58-.26a1.39,1.39,0,0,0,.06-.13h2a1,1,0,0,1,1,1V9.65a.3.3,0,0,0-.41.25c0,.65-.1,1.25-.11,1.9,0,.36.37.39.52.2v2.57a.3.3,0,0,0-.41.24,15.69,15.69,0,0,0,.1,3v0s0,0,0,0a.28.28,0,0,0,.3.22v1h2.75s0,0,0,0c.32.44,1.37.18,2.07,0h.59a.89.89,0,0,1,1,1,.87.87,0,0,1-1,1H135.6c-.54-.12-.67-.36-1.21-.41a27.25,27.25,0,0,0-3.46.19c-1.34.1-2.72.18-4.06.22h-.61a.88.88,0,0,1-1-1,.89.89,0,0,1,1-1h.35a.29.29,0,0,0,.12.21c.62.37,1.17,0,1.81,0a.36.36,0,0,0,.24-.17h1.9a1.62,1.62,0,0,1,.79-.64Zm0-8.52V9.45s0,0-.05-.06v.54Zm1.44-7.26c0,.34.37.39.52.18v.67c0,.66-.31,1-1,1a.88.88,0,0,1-1-1V1a.87.87,0,0,1,1-1,.85.85,0,0,1,1,.89.35.35,0,0,0-.22.26C133.19,1.68,133,2.13,132.93,2.67Z"/><path class="cls-1" d="M151.82,9.28a9.51,9.51,0,0,0-.43,3v0a.57.57,0,0,1,.14.28,3.61,3.61,0,0,0,.24,1A3.87,3.87,0,0,0,152,15a7.05,7.05,0,0,0,1.81,3v.12a5,5,0,0,0,.53.41,1.79,1.79,0,0,0,.24.23.44.44,0,0,0,.2,0,5.88,5.88,0,0,0,2.85.66c.48,0,.94,0,1.35-.07a.68.68,0,0,1,.29-.48,4,4,0,0,1,1.68-.78.66.66,0,0,1,.59.25c.39-.24.89-.56,1.45-1a1.11,1.11,0,0,1,.57-.17,1,1,0,0,1,1,1,1,1,0,0,1-.46.79,19.6,19.6,0,0,1-2.9,1.76,8.88,8.88,0,0,1-3.56.61,7.42,7.42,0,0,1-6-2.75A8.65,8.65,0,0,1,150,15.87a.69.69,0,0,1-.43-.14.57.57,0,0,1,.11-1,11.72,11.72,0,0,1-.25-2.48,10.36,10.36,0,0,1,2.13-6.53,7.29,7.29,0,0,1,6.07-3,7.39,7.39,0,0,1,3.26.65.7.7,0,0,1,.65-.48h.91l.69-.17a.87.87,0,0,1,1,1h0a7.48,7.48,0,0,0-.34,1.81,38.93,38.93,0,0,0-.59,3.94h-.05c-.67,0-1-.34-1-1a3.68,3.68,0,0,0-.34-1.63.54.54,0,0,1-.18-.11.51.51,0,0,1-.26-.59,3.55,3.55,0,0,0-.33-.34,5,5,0,0,0-3.41-1.07,5.26,5.26,0,0,0-3.37,1.11,1,1,0,0,1-.12.16,4.49,4.49,0,0,0-1.62,2.88A.62.62,0,0,1,151.82,9.28Zm.77,5.74a.53.53,0,0,1,0-.11l0,0Zm6.52-8.51a2.56,2.56,0,0,0-.62,0,.32.32,0,0,0-.33.37c-.61-.48.1-1.39.84-.9A.76.76,0,0,1,159.11,6.51Z"/><path class="cls-1" d="M188,4.81a.64.64,0,0,1-.16.43,8.91,8.91,0,0,1,.63.93,11.51,11.51,0,0,1,1.48,5.92A11.3,11.3,0,0,1,188.46,18a6.79,6.79,0,0,1-6.28,3.45A7.05,7.05,0,0,1,175.79,18a11.26,11.26,0,0,1-1.58-6A10.93,10.93,0,0,1,175.77,6a7,7,0,0,1,6.38-3.36A7,7,0,0,1,187,4.35a.61.61,0,0,1,1,.36Zm-1,11a11.64,11.64,0,0,0,.55-2.41.31.31,0,0,0-.59-.16s0,.06,0,.1a.74.74,0,0,0-.11.28,6.4,6.4,0,0,0,.07-.88v-.15l0-.08c0-.06-.07-.1-.1-.11s0,0-.05,0l-.1,0c-.05,0-.07,0-.09,0a16.9,16.9,0,0,0,.18-1.87.64.64,0,0,1,.4-.52C187,9.3,187,8.71,187,8.17a.5.5,0,0,1,.11-.31,5.13,5.13,0,0,0-.34-.66,5,5,0,0,0-4.61-2.56,5.23,5.23,0,0,0-4.7,2.45A8.84,8.84,0,0,0,176.18,12a9,9,0,0,0,1.3,4.95c.07.13.16.25.23.36a.68.68,0,0,1,.64.51V18a4.42,4.42,0,0,0,1.56,1,1.38,1.38,0,0,1,.32-.07h1c.5,0,1-.08,1.4-.16-.09.23,0,.38.28.43a4.17,4.17,0,0,0,2.27-.85,1,1,0,0,0,.09-.21,2.6,2.6,0,0,0,.24-.13c.66-.13.87-.69.93-1.34a2.1,2.1,0,0,0,.51-.84l0,0Zm-5.79.55H181a.3.3,0,1,0,0,.6h.1l.2.06a.52.52,0,0,1-.86.24c-.66-.5,0-1.42.78-.94C181.18,16.33,181.18,16.33,181.2,16.34Zm7.43,3.36a5.74,5.74,0,0,1-.64.91A.59.59,0,0,1,188.63,19.7Zm.22.89c-.11.1-.15.19-.27.29s-.06,0-.1,0l.17-.23a.31.31,0,0,0,.14-.06Z"/><path class="cls-1" d="M204.25,20.49a3.57,3.57,0,0,1-2.57,1A3.62,3.62,0,0,1,198,17.86a3.5,3.5,0,0,1,1.14-2.67,3.58,3.58,0,0,1,2.52-1,3.69,3.69,0,0,1,3.67,3.67A3.53,3.53,0,0,1,204.25,20.49Zm-4.72-4.76a3,3,0,0,0,0,4.29,3,3,0,0,0,4.28,0,3,3,0,0,0,.88-2.16,2.93,2.93,0,0,0-.88-2.13,3,3,0,0,0-4.29,0Zm.55,4.17V15.83h2a2.23,2.23,0,0,1,.8.21,1,1,0,0,1,.54,1,.89.89,0,0,1-.29.74,1.25,1.25,0,0,1-.7.27,1.58,1.58,0,0,1,.58.24,1.13,1.13,0,0,1,.35.91v.36s0,.08,0,.12l0,.12,0,.12h-1a3.3,3.3,0,0,1-.06-.57,2.38,2.38,0,0,0-.07-.49.47.47,0,0,0-.3-.3,1.26,1.26,0,0,0-.36-.07h-.46V19.9ZM202,16.63a1.91,1.91,0,0,0-.61-.08h-.26v1.18h.41a1,1,0,0,0,.58-.15.55.55,0,0,0,.21-.48A.47.47,0,0,0,202,16.63Z"/></g></g></svg>