<svg xmlns="http://www.w3.org/2000/svg" viewBox="0 0 179 19.6"><defs><style>.cls-1{fill:#4d4d4d;}</style></defs><g id="レイヤー_2" data-name="レイヤー 2"><g id="レイヤー_1-2" data-name="レイヤー 1"><path class="cls-1" d="M7.22,2.86a.29.29,0,0,0,.24-.23h5.07a.82.82,0,0,1,.59.25.74.74,0,0,1,.27.53l0,0A5.53,5.53,0,0,0,13,5.06a.78.78,0,0,0-.06.33.28.28,0,0,0-.3.22c0,.36-.09,1.21-.09,2h0a1.27,1.27,0,0,0-.88-.07V5.63c-.32-.37-.8-.54-1.05-1.07,0-.09,0-.18,0-.21H9.31A11,11,0,0,0,8,5l0,0a.71.71,0,0,1-.23.14l-.15.12v.56a.31.31,0,0,0-.18.23c0,.35,0,.69,0,1a.27.27,0,0,0-.16,0s0,0,0,0c-.2.15-.18.34,0,.43s.14.41.2.63q0,.82,0,1.65c0,.2-.28,1.46.25,1.72v.87a.22.22,0,0,1,.12.07.48.48,0,0,1,.11.39l.07,0a.59.59,0,0,1-.3.93v1.95a5.54,5.54,0,0,0,1.2.3.59.59,0,0,1,.44.48h1.34a.76.76,0,0,1,.86.86.75.75,0,0,1-.86.86h-1s-.08-.07-.16-.09a13.83,13.83,0,0,0-2.8-.08c-.1,0-.15.08-.17.14-1.19,0-2.34-.13-3.5-.14a.33.33,0,0,0-.27.14c-.4-.07-.6-.35-.6-.83a.77.77,0,0,1,.87-.86H4.55a1.47,1.47,0,0,1,.64-.84,2.64,2.64,0,0,1,.45-.15c.06.35.49.34.53-.05,0-2.73-.25-5.44-.34-8.19V5.05L5.72,5H5.57a.62.62,0,0,1-.46-.32,1.29,1.29,0,0,1-.35-.3H3.52l-.28.3c-1.12.14-1.4.58-1.46,1.34V6s0,0,0,0a.26.26,0,0,0-.27.06,3,3,0,0,0-.28,1A1.45,1.45,0,0,0,1,8a3.84,3.84,0,0,0-.14.4H.74c-.09-.09-.17-.06-.42,0l0-.12A8.49,8.49,0,0,0,0,6v0H0a.08.08,0,0,0,0,0C0,5,0,4.1,0,3.21c.07.36.49.34.54,0V2.68a.52.52,0,0,1,.27-.05H3.24a.49.49,0,0,1,.29-.39.31.31,0,0,0,.12.21C4.17,3,6.48,2.86,7.22,2.86ZM.51,9h0a.73.73,0,0,0,0,.09v0Zm8.11,5.8c.18.36.56.41.62.63a.24.24,0,0,0,.09.12.44.44,0,0,1-.67.07A.48.48,0,0,1,8.62,14.82Zm.77.06a.85.85,0,0,1-.19-.14l.15.08A.06.06,0,0,0,9.39,14.88Zm2.28-6.66V8.15a3.21,3.21,0,0,0,.61-.09.4.4,0,0,1,.14.15,1.7,1.7,0,0,0-.06.28.77.77,0,0,0-.45-.14A.38.38,0,0,0,11.67,8.22Zm1.47.88h0Z"/><path class="cls-1" d="M28.51,17.05a7.32,7.32,0,0,0,1.07.05h.49c.31,0,.73-.11.88-.43a1,1,0,0,0,0-.21,2.81,2.81,0,0,1,1.34-.62h.11v0a.52.52,0,0,1,.35-.45V13.6a.87.87,0,0,1,1.73,0v3.9a.87.87,0,0,1-.86.86H24.88v0c-.14-.72-1-.09-1.35,0l-.08,0H21.9A.76.76,0,0,1,21,17.5a.77.77,0,0,1,.86-.86h1a2.18,2.18,0,0,1,.84-.92V14.48c.14.09.34,0,.38-.27,0-1.86,0-3.69-.07-5.57a5.94,5.94,0,0,0-.31-1.92V5a.52.52,0,0,1-.56-.47v0s0,0-.08-.14H22a.77.77,0,0,1-.87-.87A.77.77,0,0,1,22,2.74h2.34a.36.36,0,0,0,.21.12h0a9.92,9.92,0,0,0,2.18-.17c.26-.06.48-.21.76-.26h0a1,1,0,0,1,.23.31h2.46a.56.56,0,0,1,.93-.43.68.68,0,0,1,.11.43h2.38a.87.87,0,0,1,.86.86V7.21a.87.87,0,0,1-1.73,0V5.65l-.06-.11A1.08,1.08,0,0,0,32.23,5a.27.27,0,0,1-.18,0,.62.62,0,0,1-.37-.13.64.64,0,0,1-.22-.3H30.38l-.15,0A1.34,1.34,0,0,0,29.58,4a2.36,2.36,0,0,0-.65,0c-.85-.2-1.62-.26-1.95.08a.28.28,0,0,0,0,.29s0,.07,0,.09h-.74a.6.6,0,0,1-.13.14L25.9,5A5.65,5.65,0,0,0,25.68,6a12.78,12.78,0,0,0,.07,2.31,1.25,1.25,0,0,1,.59.57c0,.05,0,.06,0,.11h1.32a2.82,2.82,0,0,1,1.51-1.54.9.9,0,0,1,1.69.38v4a.87.87,0,0,1-1.73,0v-.4a.55.55,0,0,1-.54-.35c-.06-.12-.13-.22-.19-.32H26a.31.31,0,0,1,0,.11.55.55,0,0,1-.35.53,2.46,2.46,0,0,0,0,.26.76.76,0,0,1-.14.23V13.1a.67.67,0,0,1,.33,0,3.52,3.52,0,0,0,.15,2.33.74.74,0,0,1-.15.34c.27.31.65.66.85.92H27c0,.15.05.28.27.32C27.68,17,28.09,17,28.51,17.05Zm-3.06-2.63h0s0,0,0-.06Zm.72-.4a.2.2,0,0,0,.22,0,.6.6,0,0,1-.19.39A2.73,2.73,0,0,1,26.17,14Zm.07-.52,0,0a.16.16,0,0,1,0-.1ZM29.18,15l.05.08a.18.18,0,0,0,.1.07l.1,0h.06a1.13,1.13,0,0,0,.32.61.42.42,0,0,1-.48-.1A.45.45,0,0,1,29.18,15Z"/><path class="cls-1" d="M45.47,14.82a1.6,1.6,0,0,0-.26.64c0,.2.17.3.32.26a.46.46,0,0,0,.26.36.28.28,0,0,0,.37-.1s0-.08.07-.12a.63.63,0,0,1,.19.5.39.39,0,0,1,0,.14l0,.14h1.15a.76.76,0,0,1,.85.86.76.76,0,0,1-.85.86H46.14c0-.07-.11-.13-.2-.17-.65,0-1.29,0-1.93.07a2.72,2.72,0,0,1-.95-.31.27.27,0,0,0-.34.38h-.17c-.37-.07-.58-.35-.58-.83a.77.77,0,0,1,.86-.86h.83l2.62-7.15a5.75,5.75,0,0,0,1-2.2.45.45,0,0,0-.07-.23l.72-1.95a1.88,1.88,0,0,0-1.26-.23.54.54,0,0,1-.54-.53h-.53a.76.76,0,0,1-.85-.87.88.88,0,0,1,.21-.65.32.32,0,0,0,.21.13h.06a.69.69,0,0,0,.5.38c.52.14,1-.27,1.55-.31A.3.3,0,0,0,47.39,3c.68,0,1.37,0,2,0a9.67,9.67,0,0,0,1.94.1h.06a.18.18,0,0,0,.05.07l3.43,8.59a.53.53,0,0,1,.58-.56,1.52,1.52,0,0,0-.07,1.06.43.43,0,0,1-.27-.13A.46.46,0,0,1,55,12l1.84,4.6h.67a.77.77,0,0,1,.87.86.76.76,0,0,1-.87.86H55.71c0-.14-.1-.27-.31-.26-.64.06-1.72.26-1.83.26h-.65a.76.76,0,0,1-.86-.86.77.77,0,0,1,.86-.86h0l-.06,0a.56.56,0,0,1-.23-.4c.38,0,.74,0,.87-.45,0,0,0,0,0,0a.65.65,0,0,1-.09.85h.85a.73.73,0,0,1,.12-.37,2.87,2.87,0,0,1,.29-.31l-.9-2.27a.28.28,0,0,1-.18,0,.77.77,0,0,1-.27-.07.69.69,0,0,1-.31-.3H46.71l-.16.42,0,0s-.05,0-.06,0l0,0a.29.29,0,0,0-.22,0l-.07.07v0s0,.06,0,.09a1.45,1.45,0,0,1-.32.54.28.28,0,0,0-.29.25ZM49.83,5.6a.22.22,0,0,0-.06.13v0c0,.07,0,.12-.05.17a.81.81,0,0,1,0-.17.14.14,0,0,0-.27,0,.29.29,0,0,0-.25.13h0v0a11.42,11.42,0,0,0-1.12,2.72,1.89,1.89,0,0,0-.21.48c-.07.16-.68,1.21-.53,1.65.31,1.06,2.8.7,3.55.64h.24a1.2,1.2,0,0,0,1-.21,1.67,1.67,0,0,0,.46.28.25.25,0,0,0,.23-.43,3.27,3.27,0,0,1-.56-.68c-.11-.21-.34-1.15-.4-1.34,0,0,0,0,0,0-.18-1.06-.72-2-.82-3.07a.27.27,0,0,0-.53,0,2.78,2.78,0,0,0-.81-.67c-.21-.05-.28.16-.11.25Zm-1.3,4.28s-.05,0-.09.07,0-.06.06-.1Zm.26-1.56a.23.23,0,0,1,0,.11,1.27,1.27,0,0,0-.15.21C48.69,8.53,48.75,8.43,48.79,8.32Zm.92,1.62s0,0,0,0V10l-.09,0V9.94l0,0Zm3.13,1.64v0H53Z"/><path class="cls-1" d="M66.06,8a.27.27,0,0,0,.12-.49h.76a.28.28,0,0,0,.22-.36H68.3V6.91c.15,0,.28-.1.29-.31s0-.7-.08-1.06a.25.25,0,0,0-.21-.21V4a.77.77,0,0,1,.84-.87.25.25,0,0,0,.27,0,.82.82,0,0,1,.34.15c0,.06,0,.08,0,.1s0,0,0,.07a0,0,0,0,0,0,0v.09a5,5,0,0,0,0,1.53.27.27,0,0,0-.21.23c0,.31-.08.7.3.8a.39.39,0,0,0,.18,0v1a.27.27,0,0,0,.09.35.64.64,0,0,0,.3.18.41.41,0,0,0,.24-.06.16.16,0,0,0,.07-.09l.26.23a.3.3,0,0,0,.44-.19c-.09-.14,0-.34.27-.38h2.11a.26.26,0,0,1,.19.36h.39a.27.27,0,0,0,.22-.36H76a.78.78,0,0,1,.86.87.76.76,0,0,1-.86.86H75.6a.57.57,0,0,1-.13-.07c-.16,0-.09,0-.2,0a2.5,2.5,0,0,0-.68-.15.3.3,0,0,0-.31.25H74a.27.27,0,0,0-.16-.42H72.05c-.24,0-.34.22-.27.37l-1,0a.43.43,0,0,0-.21.07h-.29a4.36,4.36,0,0,1-.29.48v1.12c-.13,0-.37.26-.45.71A6.31,6.31,0,0,0,69.81,13a.3.3,0,0,0,.22.27v.55a1.91,1.91,0,0,1,0-.32.27.27,0,0,0-.53,0c0,.64.16.94.17,1.31a.69.69,0,0,0,.09.21V16c0,.25.26.33.4.24a4.09,4.09,0,0,0,.19.59c-.2-.07-.39.14-.27.39a1.41,1.41,0,0,0,.74.41.93.93,0,0,0,0,.1c.24.57,1.13.76,1.88.66h0c0,.1.1.15.25.17l.26-.05a2.76,2.76,0,0,0,1.66-.32c.21.49,1.72-.27,2-.48a.27.27,0,0,0,0-.4A1.4,1.4,0,0,1,78,16.8a.28.28,0,0,0,.23-.32.64.64,0,0,1,.15.13.91.91,0,0,1,.26.63.83.83,0,0,1-.41.69l-1.62.83a9.77,9.77,0,0,1-3.84.84,5.85,5.85,0,0,1-2.12-.35c.31-.07.29-.42,0-.52h-.6a.29.29,0,0,0-.22.07,4,4,0,0,1-1.49-3.06.26.26,0,0,0,.23-.37.4.4,0,0,1-.08-.16.59.59,0,0,0,0-.13c0-.84.34-2.6-.21-3.46V9.88a.33.33,0,0,0-.11-.33c-.26-.08-.28-.42-.52-.52a2.17,2.17,0,0,1,0-.38.66.66,0,0,1-.28,0,.26.26,0,0,0-.5.16.31.31,0,0,0,0,.08H65.56A.76.76,0,0,1,64.7,8V7.92l0,0a.88.88,0,0,1,.4-.18h.05c0,.12.09.23.27.26h.15a.41.41,0,0,0,.21.09Zm2.15.86a.61.61,0,0,0,0,.17l0,.17V8.89Z"/><path class="cls-1" d="M95,16.64h1c0,.15.06.28.27.32.44,0,.9.08,1.35.09a1,1,0,0,1,.08.45.76.76,0,0,1-.87.86h-2c.15-.14.08-.34-.14-.43h-.35c-.22,0-.34.16-.3.3a3,3,0,0,0-1.77,0,1.14,1.14,0,0,0-.16.09H90.38a7.36,7.36,0,0,0-1.87-.17.33.33,0,0,0-.29.17h-.55a.77.77,0,0,1-.87-.86,1.76,1.76,0,0,1,.06-.4.27.27,0,0,0,.13,0,1.4,1.4,0,0,0,1-.43s0,0,0-.08h1.78l0-.06c-.06-.15-.08-.2,0-.34s.34-.22.57-.24a1,1,0,0,0,.08-.22c0-1.44.11-2.89.21-4.33a.24.24,0,0,1-.2-.21c0-.28-.06-.25-.13-.36-.12-.3.14-.5.37-.34v-.08l-.28-.85-.08,0V8.47a.27.27,0,0,1-.23-.19A.92.92,0,0,0,89.89,8a.25.25,0,0,1-.44-.2H88.2A.76.76,0,0,1,87.33,7a.77.77,0,0,1,.87-.87.24.24,0,0,0,.16.33c1.19.43,1,0,2-.07.16,0,.24-.11.24-.26h.59a.89.89,0,0,1,.87.87V7.1c.09,0,.2,0,.3.12a1.57,1.57,0,0,1,.18.59,3,3,0,0,1,.5-.27.59.59,0,0,0,.19-.13.26.26,0,0,1,.43.09,7,7,0,0,1,4.12-1.32,3.41,3.41,0,0,1,1.94.54.23.23,0,0,0,.1.19.23.23,0,0,0-.13.38.26.26,0,0,0,.47-.2l0,0a.84.84,0,0,1,.26.6.92.92,0,0,1-.89.88A.84.84,0,0,1,99,8.32a1.72,1.72,0,0,0-.91-.39.28.28,0,0,0-.21-.35,4.55,4.55,0,0,0-1.18.11c-.92,0-1.71,0-2.35.61a2.67,2.67,0,0,0-1.74,2.36c-.21.1-.25.3-.12.43-.13.15-.26.31-.38.48v1.06l-.07,0a2.36,2.36,0,0,0-.24.41q0,.78,0,1.53c.1.25.18.49.28.76V16a2.92,2.92,0,0,1,.75.68h.78a1.46,1.46,0,0,0,1.15.41A.27.27,0,0,0,95,16.64Zm-2.88-7.8V8.9s0,0,0,0S92.12,8.86,92.11,8.84Zm.45-.4a.27.27,0,0,0,.08-.07l-.06,0A.13.13,0,0,0,92.56,8.44Zm.68,1.8a2.67,2.67,0,0,1,.35-.78c0,.18-.1.35-.15.54Zm1.35-1.42,0,0S94.59,8.81,94.59,8.82Z"/><path class="cls-1" d="M114.62,16.09V15c.07-1.16.16-2.29.21-3.46,0-.43.11-.94-.21-1.12V9.17a.31.31,0,0,1-.2-.05s0,0,0-.06-.29,0-.32-.25a5.57,5.57,0,0,0,0-1h-.33a.41.41,0,0,0-.2-.15c-.36,0-.67.13-1,.15h-.91A.75.75,0,0,1,110.7,7a.77.77,0,0,1,.45-.8c0,.14.08.23.29.27.43,0,1.88.21,2.24-.22a.45.45,0,0,0,.06-.12h1.74a.87.87,0,0,1,.85.87V8.42a.26.26,0,0,0-.36.21c0,.56-.08,1.09-.09,1.66,0,.31.32.34.45.17V12.7a.26.26,0,0,0-.36.21,15,15,0,0,0,.08,2.6v0l0,0a.24.24,0,0,0,.26.19v.89h2.4s0,0,0,0c.28.39,1.19.17,1.8,0h.51a.77.77,0,0,1,.86.86.76.76,0,0,1-.86.86H118.2c-.47-.1-.58-.31-1.06-.36a24.21,24.21,0,0,0-3,.16c-1.17.1-2.37.16-3.54.2h-.53a.76.76,0,0,1-.86-.86.77.77,0,0,1,.86-.86h.31a.28.28,0,0,0,.1.19c.54.32,1,0,1.57,0a.29.29,0,0,0,.21-.15h1.66a1.41,1.41,0,0,1,.69-.55Zm0-7.44V8.24s0,0-.05-.06v.47Zm1.26-6.33c0,.31.32.35.45.17v.58a.86.86,0,1,1-1.71,0V.85a.76.76,0,0,1,.86-.85.75.75,0,0,1,.85.78.27.27,0,0,0-.19.22C116.1,1.47,115.92,1.86,115.88,2.32Z"/><path class="cls-1" d="M132.34,8.09a8.4,8.4,0,0,0-.37,2.57v0a.6.6,0,0,1,.12.24,3,3,0,0,0,.21.85,3.13,3.13,0,0,0,.19,1.24,6.17,6.17,0,0,0,1.58,2.61v.1a3.17,3.17,0,0,0,.46.36,1.37,1.37,0,0,0,.21.2.47.47,0,0,0,.17,0,5.15,5.15,0,0,0,2.48.57,10.68,10.68,0,0,0,1.18-.06.67.67,0,0,1,.25-.42,3.73,3.73,0,0,1,1.47-.68.6.6,0,0,1,.52.22c.33-.21.77-.49,1.26-.83a1,1,0,0,1,.5-.16.9.9,0,0,1,.86.91.82.82,0,0,1-.4.68,18.4,18.4,0,0,1-2.53,1.54,7.89,7.89,0,0,1-3.11.53,6.44,6.44,0,0,1-5.24-2.4,7.59,7.59,0,0,1-1.4-2.39.58.58,0,0,1-.38-.13.49.49,0,0,1,.1-.88,10.24,10.24,0,0,1-.22-2.17A9.09,9.09,0,0,1,132.1,5a6.34,6.34,0,0,1,5.29-2.62,6.5,6.5,0,0,1,2.85.57.61.61,0,0,1,.57-.42h.79l.6-.15a.76.76,0,0,1,.86.86h0a6.1,6.1,0,0,0-.3,1.58,32,32,0,0,0-.51,3.44h-.05a.78.78,0,0,1-.87-.9A3.22,3.22,0,0,0,141,5.91a.43.43,0,0,1-.16-.1.44.44,0,0,1-.22-.51,2.76,2.76,0,0,0-.29-.3,4.31,4.31,0,0,0-3-.93,4.6,4.6,0,0,0-2.93,1l-.1.14A3.82,3.82,0,0,0,133,7.69.56.56,0,0,1,132.34,8.09Zm.67,5a.41.41,0,0,1,0-.1l0,0Zm5.69-7.43a2.44,2.44,0,0,0-.54,0,.27.27,0,0,0-.29.32c-.53-.42.09-1.21.73-.79A.75.75,0,0,1,138.7,5.67Z"/><path class="cls-1" d="M163.87,4.19a.62.62,0,0,1-.14.38,8.19,8.19,0,0,1,.55.81,10.06,10.06,0,0,1,1.29,5.16,9.85,9.85,0,0,1-1.29,5.11,5.93,5.93,0,0,1-5.48,3,6.13,6.13,0,0,1-5.56-3,9.82,9.82,0,0,1-1.38-5.23,9.48,9.48,0,0,1,1.36-5.17A6.75,6.75,0,0,1,163,3.79a.53.53,0,0,1,.87.31ZM163,13.76a10.34,10.34,0,0,0,.47-2.09c0-.31-.36-.44-.5-.15a.32.32,0,0,0,0,.09.88.88,0,0,0-.09.25,5,5,0,0,0,.06-.77V11l0-.08a.73.73,0,0,0-.09-.09s0,0,0,0h-.17a14.74,14.74,0,0,0,.16-1.63.55.55,0,0,1,.35-.45C163,8.11,163,7.59,163,7.12a.46.46,0,0,1,.09-.27,3.55,3.55,0,0,0-.3-.58,4.36,4.36,0,0,0-4-2.23,4.56,4.56,0,0,0-4.09,2.14,7.72,7.72,0,0,0-1.1,4.25,7.8,7.8,0,0,0,1.13,4.31c.06.11.13.21.2.32a.58.58,0,0,1,.55.44v.2a3.88,3.88,0,0,0,1.37.88,1.7,1.7,0,0,1,.28-.06H158c.44,0,.83-.07,1.23-.14-.08.2,0,.33.24.37a3.64,3.64,0,0,0,2-.73.62.62,0,0,0,.07-.19l.22-.11c.57-.12.75-.61.81-1.17a2,2,0,0,0,.45-.73s0,0,0,0Zm-5.05.48h-.18c-.34,0-.4.46,0,.52l.09,0,.18.05a.46.46,0,0,1-.76.21c-.57-.44,0-1.24.69-.82C157.94,14.23,157.94,14.23,158,14.24Zm6.48,2.93a5.48,5.48,0,0,1-.56.8A.52.52,0,0,1,164.43,17.17Zm.19.77c-.1.09-.13.17-.24.26s0,0-.08,0l.15-.2a.27.27,0,0,0,.12-.05Z"/><path class="cls-1" d="M178,17.86a3.19,3.19,0,0,1-5.43-2.29,3,3,0,0,1,1-2.33,3.11,3.11,0,0,1,2.2-.87,3.21,3.21,0,0,1,3.19,3.2A3.07,3.07,0,0,1,178,17.86Zm-4.11-4.14a2.63,2.63,0,0,0,0,3.73,2.53,2.53,0,0,0,1.87.78,2.5,2.5,0,0,0,1.85-.78,2.63,2.63,0,0,0,0-3.73,2.59,2.59,0,0,0-3.74,0Zm.47,3.62V13.8h1.72a1.75,1.75,0,0,1,.7.18.91.91,0,0,1,.47.85.75.75,0,0,1-.25.64,1,1,0,0,1-.61.24,1.11,1.11,0,0,1,.5.21.94.94,0,0,1,.31.79V17s0,.07,0,.1a.29.29,0,0,0,0,.1l0,.1h-.89a3.73,3.73,0,0,1,0-.49,1.59,1.59,0,0,0-.06-.43.47.47,0,0,0-.26-.26,1.07,1.07,0,0,0-.32-.06h-.4v1.25Zm1.69-2.84a1.47,1.47,0,0,0-.53-.07h-.23v1h.36a.84.84,0,0,0,.51-.13.47.47,0,0,0,.18-.42A.4.4,0,0,0,176.09,14.5Z"/></g></g></svg>